<?xml version="1.0" standalone="no"?>
<!DOCTYPE svg PUBLIC "-//W3C//DTD SVG 20010904//EN"
 "http://www.w3.org/TR/2001/REC-SVG-20010904/DTD/svg10.dtd">
<svg version="1.0" xmlns="http://www.w3.org/2000/svg"
 width="1869.000000pt" height="2051.000000pt" viewBox="0 0 1869.000000 2051.000000"
 preserveAspectRatio="xMidYMid meet">

<g transform="translate(0.000000,2051.000000) scale(0.100000,-0.100000)"
fill="#000000" stroke="none">
<path d="M8080 20499 c-550 -14 -1101 -65 -1597 -150 -168 -28 -175 -30 -202
-62 -16 -17 -452 -529 -970 -1136 l-941 -1105 0 -688 0 -688 2043 -2 2042 -3
0 -260 0 -260 -2857 -5 -2856 -5 -1079 -1265 c-593 -696 -1191 -1399 -1330
-1562 l-252 -296 -20 -158 c-32 -253 -42 -384 -50 -616 -19 -615 36 -1167 190
-1908 123 -587 239 -949 410 -1279 313 -605 760 -984 1329 -1126 230 -58 239
-58 1113 -62 l807 -4 0 1013 c0 853 2 1033 15 1138 49 391 193 768 423 1105
109 160 179 244 331 395 382 380 843 621 1382 722 l124 23 2275 5 c2092 6
2283 7 2374 23 225 39 405 96 592 188 535 261 937 760 1084 1347 68 271 64
116 68 2332 3 2128 1 2239 -43 2456 -164 802 -865 1464 -1790 1690 -400 97
-1259 189 -1880 199 -159 3 -328 7 -375 8 -47 2 -209 0 -360 -4z m-1744 -1259
c154 -39 305 -133 404 -253 64 -77 143 -239 164 -334 22 -100 21 -258 -3 -358
-86 -353 -392 -596 -753 -595 -300 1 -564 174 -693 453 -51 110 -68 193 -68
327 0 134 17 217 68 327 100 216 292 378 512 432 108 27 265 27 369 1z"/>
</g>
</svg>
